<svg width="61" height="62" viewBox="0 0 61 62" fill="none" xmlns="http://www.w3.org/2000/svg">
<path d="M45.7578 27.8117H60.5193C60.0403 23.0494 58.4371 18.4689 55.8418 14.4473C53.2133 15.7042 50.9252 17.5742 49.1703 19.9C47.4154 22.2258 46.2451 24.9391 45.7578 27.8117ZM14.8377 27.8117C14.3504 24.9391 13.18 22.2258 11.4251 19.9C9.67024 17.5742 7.3822 15.7042 4.75368 14.4473C2.15833 18.4689 0.555172 23.0494 0.0761719 27.8117H14.8377ZM39.6224 27.8117C40.0977 24.0176 41.4623 20.3894 43.6053 17.2225C45.7482 14.0557 48.6087 11.4397 51.954 9.5876C46.9903 4.51016 40.4 1.33866 33.3351 0.627441V27.8117H39.6224ZM20.9731 27.8117H27.2604V0.627441C20.1936 1.33207 13.6012 4.5046 8.64148 9.5876C11.9867 11.4397 14.8473 14.0557 16.9902 17.2225C19.1331 20.3894 20.4978 24.0176 20.9731 27.8117ZM39.6224 33.8863H33.3351V61.0706C40.4018 60.3659 46.9942 57.1934 51.954 52.1104C48.6087 50.2583 45.7482 47.6423 43.6053 44.4755C41.4623 41.3086 40.0977 37.6804 39.6224 33.8863ZM4.75368 47.2506C7.37593 45.9851 9.65862 44.1126 11.4124 41.7884C13.1661 39.4641 14.3403 36.7552 14.8377 33.8863H0.0761719C0.562147 38.7765 2.23268 43.3325 4.75368 47.2506ZM45.7578 33.8863C46.2451 36.7589 47.4154 39.4722 49.1703 41.798C50.9252 44.1238 53.2133 45.9938 55.8418 47.2506C58.4371 43.2291 60.0403 38.6486 60.5193 33.8863H45.7578ZM20.9731 33.8863C20.4978 37.6804 19.1331 41.3086 16.9902 44.4755C14.8473 47.6423 11.9867 50.2583 8.64148 52.1104C13.6052 57.1878 20.1955 60.3593 27.2604 61.0706V33.8863H20.9731Z" fill="white"/>
</svg>
