<svg width="102" height="62" viewBox="0 0 102 62" fill="none" xmlns="http://www.w3.org/2000/svg">
<path d="M43.4651 0.967058L35.4585 8.97367C33.0612 9.63175 30.8363 10.8382 28.9561 12.4991L24.7883 16.2125C23.1901 17.6384 21.1062 18.4218 18.9596 18.4218H15.8572V38.4775C19.0536 38.5715 22.0933 39.872 24.3652 42.1439L29.9432 47.7219L31.04 48.8187L35.2705 53.0492C36.2419 54.0207 37.8401 54.0207 38.8116 53.0492C39.0779 52.7828 39.2816 52.4695 39.3913 52.1404C39.83 50.934 40.8485 50.0252 42.102 49.7431C43.3555 49.4611 44.6716 49.8372 45.5804 50.7616L47.2726 52.4225C49.0901 54.24 52.0358 54.24 53.8377 52.4225C54.6838 51.5764 55.1382 50.4952 55.1852 49.3828C55.2479 48.0039 56.0626 46.7818 57.3161 46.1864C58.5696 45.591 60.0268 45.7163 61.1392 46.5154C62.6121 47.5652 64.6646 47.4242 65.9808 46.1081C67.4536 44.6352 67.4536 42.2536 65.9808 40.7964L54.1041 28.9197L48.4947 34.0903C44.2172 38.0388 37.6521 38.1014 33.2963 34.2313C28.3293 29.8128 28.2197 22.1039 33.0456 17.5443L44.0292 7.17179C48.3224 3.12931 53.9944 0.873047 59.9014 0.873047C65.5577 0.873047 71.026 2.95696 75.2409 6.70173L79.9571 10.9009H98.587C99.9658 10.9009 101.094 12.029 101.094 13.4079V45.9984C101.094 48.7717 98.8533 51.0123 96.08 51.0123H91.0661C89.2172 51.0123 87.5877 50.0095 86.7259 48.5053H73.4233C72.8906 49.5551 72.1855 50.5579 71.3081 51.4353C68.6288 54.1147 64.9153 55.1645 61.4369 54.5847C60.8729 55.7285 60.1051 56.794 59.1493 57.7498C54.8718 62.0273 48.1814 62.4503 43.4181 59.0189C39.4853 62.278 33.6253 62.0743 29.9432 58.3765L25.7284 54.146L24.6316 53.0492L19.0536 47.4712C18.1918 46.6094 17.0637 46.1081 15.8572 46.014C15.8572 48.7717 13.6009 51.0123 10.8433 51.0123H5.82935C3.05603 51.0123 0.81543 48.7717 0.81543 45.9984V13.4079C0.81543 12.029 1.94356 10.9009 3.32239 10.9009H18.9596C19.2729 10.9009 19.5706 10.7912 19.79 10.5875L23.9422 6.88976C28.3137 3.01963 33.9387 0.873047 39.783 0.873047H41.3969C42.0863 0.873047 42.7914 0.904384 43.4651 0.967058ZM86.0522 40.9844V18.4218H78.5313C77.6068 18.4218 76.7137 18.0771 76.04 17.466L70.2583 12.3267C67.4066 9.78843 63.7245 8.39393 59.9014 8.39393C55.9216 8.39393 52.0985 9.91378 49.1998 12.6401L38.2162 23.0127C36.6023 24.5482 36.6337 27.1335 38.2945 28.6063C39.7517 29.9068 41.961 29.8755 43.3868 28.5593L54.6525 18.1554C56.1723 16.7453 58.5539 16.8393 59.9641 18.3748C61.3742 19.9103 61.2802 22.2762 59.7447 23.6864L59.6194 23.8118L71.2767 35.4691C72.8436 37.036 73.8621 38.9632 74.3164 40.9688H86.0522V40.9844ZM10.8433 43.4914C10.8433 42.8265 10.5792 42.1889 10.109 41.7187C9.63886 41.2486 9.00121 40.9844 8.33632 40.9844C7.67143 40.9844 7.03377 41.2486 6.56363 41.7187C6.09348 42.1889 5.82935 42.8265 5.82935 43.4914C5.82935 44.1563 6.09348 44.794 6.56363 45.2641C7.03377 45.7342 7.67143 45.9984 8.33632 45.9984C9.00121 45.9984 9.63886 45.7342 10.109 45.2641C10.5792 44.794 10.8433 44.1563 10.8433 43.4914ZM93.573 45.9984C94.2379 45.9984 94.8756 45.7342 95.3457 45.2641C95.8159 44.794 96.08 44.1563 96.08 43.4914C96.08 42.8265 95.8159 42.1889 95.3457 41.7187C94.8756 41.2486 94.2379 40.9844 93.573 40.9844C92.9082 40.9844 92.2705 41.2486 91.8004 41.7187C91.3302 42.1889 91.0661 42.8265 91.0661 43.4914C91.0661 44.1563 91.3302 44.794 91.8004 45.2641C92.2705 45.7342 92.9082 45.9984 93.573 45.9984Z" fill="white"/>
</svg>
