<svg width="344" height="339" viewBox="0 0 344 339" fill="none" xmlns="http://www.w3.org/2000/svg">
<g filter="url(#filter0_d_34_470)">
<rect x="2.59813" width="195.325" height="195.325" rx="6.5" transform="matrix(0.866044 -0.499967 0.866044 0.499967 0.403699 232.25)" fill="#2B3E6D" stroke="#51F4FE" stroke-width="3"/>
</g>
<g filter="url(#filter1_d_34_470)">
<rect x="2.59813" width="195.325" height="195.325" rx="6.5" transform="matrix(0.866044 -0.499967 0.866044 0.499967 0.403699 182.24)" stroke="#51F4FE" stroke-width="3"/>
</g>
<path d="M245.56 223.465L232.068 214.806L249.642 219.865C260.683 209.261 268.77 194.568 268.77 194.568C268.77 194.568 239.2 176.414 220.985 181.258C202.77 186.103 199.275 198.682 202.808 212.112C206.342 225.542 215.566 234.738 233.781 229.893C237.835 228.815 241.817 226.465 245.56 223.465Z" fill="#2E9298"/>
<path d="M230.727 212.014L229.829 212.253C219.379 214.975 210.77 215.371 204.123 213.423C204.025 213.397 203.931 213.364 203.834 213.338L203.967 212.886L204.101 212.454C211.306 214.659 220.416 213.695 229.532 211.323C229.827 211.249 230.125 211.174 230.422 211.091C234.272 210.052 238.108 208.779 241.795 207.392C242.081 207.287 242.371 207.176 242.66 207.066C247.518 205.21 252.091 203.18 256.034 201.3C256.313 201.168 256.591 201.032 256.865 200.897C263.525 197.687 268.244 194.963 269.286 194.352C269.415 194.279 269.484 194.237 269.501 194.228L269.732 194.62L269.738 194.623L269.971 195.021C269.954 195.03 269.721 195.173 269.283 195.424C267.648 196.37 263.197 198.883 257.216 201.779C256.945 201.909 256.667 202.045 256.388 202.176C253.19 203.706 249.593 205.327 245.776 206.869C244.817 207.257 243.869 207.629 242.93 207.984C242.642 208.099 242.352 208.209 242.066 208.314C238.081 209.814 234.301 211.047 230.727 212.014Z" fill="#151E35"/>
<path d="M257.216 201.779C257.097 201.49 256.977 201.197 256.865 200.897C256.559 200.083 256.294 199.253 256.073 198.411C255.124 194.825 254.988 191.07 255.674 187.424C255.389 187.299 255.104 187.174 254.814 187.045C254.056 190.891 254.183 194.859 255.184 198.647C255.421 199.546 255.704 200.431 256.034 201.3C256.145 201.595 256.265 201.889 256.388 202.176C257.391 204.554 258.747 206.765 260.41 208.733C260.604 208.476 260.795 208.225 260.982 207.979C259.43 206.11 258.161 204.021 257.216 201.779Z" fill="#151E35"/>
<path d="M242.93 207.984C242.831 207.68 242.741 207.374 242.66 207.066C242.631 206.973 242.605 206.875 242.58 206.781C241.557 202.894 241.484 198.815 242.368 194.894C243.252 190.972 245.065 187.323 247.654 184.258C247.345 184.149 247.036 184.04 246.723 183.937C244.121 187.106 242.308 190.852 241.433 194.866C240.558 198.879 240.646 203.045 241.691 207.017C241.724 207.143 241.757 207.268 241.794 207.392C241.881 207.703 241.971 208.009 242.066 208.314C243.564 213.021 246.379 217.194 250.174 220.335C250.399 220.122 250.623 219.909 250.847 219.692C247.131 216.647 244.379 212.578 242.93 207.984Z" fill="#151E35"/>
<path d="M230.726 212.014C230.617 211.708 230.517 211.4 230.422 211.091C230.32 210.759 230.223 210.426 230.135 210.091C228.766 204.866 229.118 199.336 231.138 194.328C233.157 189.321 236.735 185.106 241.336 182.315C240.923 182.209 240.515 182.103 240.104 182.006C235.563 184.98 232.07 189.318 230.121 194.402C228.172 199.486 227.865 205.058 229.246 210.328C229.334 210.663 229.427 210.997 229.531 211.323C229.624 211.638 229.724 211.946 229.828 212.253C231.982 218.44 236.395 223.574 242.172 226.614C242.476 226.432 242.772 226.239 243.073 226.044C237.3 223.16 232.871 218.127 230.726 212.014Z" fill="#151E35"/>
<path d="M191.744 228.526L125.022 201.524C121.024 199.9 117.829 196.748 116.14 192.76C114.45 188.771 114.402 184.272 116.008 180.248L183.988 10.4432C185.603 6.42319 188.737 3.21129 192.704 1.51212C196.671 -0.187042 201.147 -0.234702 205.149 1.3796L271.87 28.3821C275.868 30.0055 279.063 33.1572 280.753 37.1458C282.443 41.1344 282.49 45.6341 280.885 49.6577L212.904 219.462C211.29 223.482 208.155 226.694 204.188 228.394C200.221 230.093 195.746 230.14 191.744 228.526Z" fill="#32477C"/>
<path d="M269.238 32.7892L261.811 29.7835C261.148 29.5159 260.406 29.5238 259.749 29.8053C259.092 30.0869 258.572 30.6192 258.305 31.2853C257.758 32.6474 256.696 33.7356 255.352 34.3113C254.008 34.8869 252.492 34.9029 251.136 34.3558L214.813 19.6557C213.458 19.1059 212.376 18.0382 211.803 16.687C211.231 15.3357 211.215 13.8112 211.759 12.4481C212.025 11.7814 212.018 11.0358 211.738 10.3749C211.458 9.71394 210.928 9.19172 210.266 8.92281L203.717 6.27257C200.682 5.04869 197.287 5.08508 194.279 6.37375C191.27 7.66242 188.893 10.0982 187.668 13.1468L120.171 181.745C118.953 184.796 118.99 188.209 120.271 191.234C121.553 194.259 123.976 196.649 127.008 197.881L192.529 224.398C195.564 225.621 198.958 225.585 201.967 224.296C204.975 223.008 207.353 220.572 208.578 217.523L276.075 48.9256C277.292 45.8739 277.256 42.4613 275.974 39.4363C274.693 36.4113 272.27 34.0208 269.238 32.7892Z" fill="#1B2644"/>
<path d="M260.737 101.685C260.388 101.543 260.109 101.268 259.961 100.92C259.814 100.571 259.81 100.178 259.95 99.8272L270.319 73.9262C270.46 73.5753 270.734 73.295 271.08 73.1469C271.426 72.9988 271.817 72.9949 272.166 73.1362C272.515 73.2775 272.794 73.5524 272.942 73.9004C273.09 74.2485 273.094 74.6413 272.954 74.9924L262.585 100.893C262.444 101.244 262.17 101.525 261.824 101.673C261.477 101.822 261.086 101.826 260.737 101.685Z" fill="#7092EB"/>
<path d="M170.914 43.1019C170.565 42.9602 170.286 42.685 170.138 42.3367C169.991 41.9885 169.986 41.5956 170.127 41.2443L172.483 35.3577C172.553 35.1835 172.656 35.0247 172.786 34.8905C172.917 34.7563 173.072 34.6492 173.244 34.5755C173.416 34.5018 173.6 34.4629 173.787 34.4609C173.973 34.4589 174.159 34.494 174.332 34.5641C174.505 34.6342 174.663 34.7379 174.796 34.8694C174.929 35.0008 175.035 35.1574 175.108 35.3301C175.181 35.5029 175.22 35.6884 175.222 35.8761C175.223 36.0638 175.188 36.25 175.118 36.424L172.761 42.3106C172.62 42.6616 172.347 42.942 172 43.0904C171.654 43.2387 171.263 43.2429 170.914 43.1019Z" fill="#7092EB"/>
<path d="M166.553 53.9922C166.204 53.8505 165.925 53.5753 165.778 53.227C165.63 52.8788 165.626 52.4859 165.766 52.1346L168.123 46.248C168.192 46.0737 168.295 45.9149 168.426 45.7807C168.556 45.6464 168.712 45.5393 168.884 45.4656C169.055 45.3919 169.24 45.3529 169.426 45.3509C169.613 45.3489 169.798 45.384 169.972 45.4541C170.145 45.5242 170.303 45.6279 170.436 45.7594C170.569 45.8909 170.675 46.0475 170.748 46.2203C170.821 46.3931 170.86 46.5786 170.861 46.7663C170.863 46.9541 170.828 47.1402 170.758 47.3143L168.401 53.2008C168.26 53.5518 167.986 53.8323 167.64 53.9806C167.294 54.129 166.903 54.1332 166.553 53.9922Z" fill="#7092EB"/>
<path d="M229.159 78.992L200.815 67.521C200.234 67.2843 199.77 66.8261 199.525 66.2464C199.279 65.6668 199.272 65.0129 199.504 64.4278L206.307 47.4359C206.542 46.852 206.998 46.3856 207.574 46.1386C208.151 45.8916 208.801 45.8841 209.383 46.1177L237.727 57.5887C238.308 57.8254 238.772 58.2836 239.017 58.8631C239.263 59.4427 239.271 60.0964 239.038 60.6815L232.235 77.6737C232 78.2575 231.544 78.7239 230.968 78.9709C230.391 79.2179 229.741 79.2255 229.159 78.992ZM208.905 47.3132C208.638 47.2062 208.34 47.2097 208.076 47.3229C207.812 47.4362 207.603 47.6499 207.495 47.9175L200.693 64.9083C200.587 65.1766 200.59 65.4762 200.703 65.7419C200.815 66.0075 201.028 66.2176 201.294 66.3261L229.636 77.7963C229.903 77.9034 230.201 77.8999 230.466 77.7867C230.73 77.6734 230.939 77.4596 231.047 77.1918L237.849 60.2012C237.956 59.933 237.952 59.6333 237.839 59.3677C237.727 59.1021 237.514 58.8921 237.248 58.7836L208.905 47.3132Z" fill="#3D528E"/>
<path d="M229.328 68.1797L229.326 68.179L207.447 59.3242C207.142 59.1999 206.882 58.9841 206.703 58.7063C206.525 58.4284 206.435 58.102 206.447 57.7712L206.86 47.4679C206.871 47.2111 206.942 46.9606 207.069 46.7374C207.195 46.5142 207.373 46.3248 207.588 46.1851C207.802 46.0454 208.047 45.9595 208.302 45.9347C208.556 45.9098 208.813 45.9467 209.05 46.0422L238.006 57.7034C238.397 57.8612 238.711 58.1682 238.878 58.5574C239.045 58.9467 239.052 59.3866 238.898 59.7811L238.993 59.8767L238.085 60.786L238.084 60.7857L231.05 67.8277C230.829 68.0497 230.548 68.2014 230.242 68.264C229.935 68.3266 229.618 68.2972 229.328 68.1797Z" fill="#3D528E"/>
<path d="M212.898 68.929L203.167 64.9908C202.927 64.8936 202.736 64.7048 202.634 64.4658C202.533 64.2268 202.531 63.9571 202.627 63.7161C202.724 63.4752 202.911 63.2825 203.149 63.1807C203.387 63.0788 203.655 63.076 203.895 63.1728L213.626 67.1111C213.865 67.2082 214.057 67.397 214.158 67.636C214.259 67.8751 214.262 68.1447 214.165 68.3857C214.069 68.6267 213.881 68.8193 213.643 68.9211C213.406 69.023 213.138 69.0258 212.898 68.929Z" fill="#3D528E"/>
<path d="M218.923 65.6692C220.239 65.6692 221.305 64.5969 221.305 63.2742C221.305 61.9514 220.239 60.8792 218.923 60.8792C217.608 60.8792 216.541 61.9514 216.541 63.2742C216.541 64.5969 217.608 65.6692 218.923 65.6692Z" fill="#7D6DF1"/>
<path d="M186.895 184.565L158.55 173.094C157.97 172.857 157.506 172.399 157.26 171.819C157.014 171.24 157.007 170.586 157.239 170.001L164.042 153.009C164.277 152.425 164.733 151.958 165.31 151.711C165.886 151.464 166.536 151.457 167.118 151.691L195.462 163.161C196.043 163.398 196.507 163.856 196.753 164.436C196.998 165.015 197.006 165.669 196.774 166.254L189.971 183.246C189.735 183.83 189.28 184.297 188.703 184.544C188.127 184.791 187.477 184.798 186.895 184.565ZM166.64 152.886C166.374 152.779 166.076 152.782 165.812 152.896C165.547 153.009 165.338 153.223 165.231 153.49L158.428 170.481C158.322 170.749 158.325 171.049 158.438 171.315C158.551 171.58 158.763 171.79 159.03 171.899L187.372 183.369C187.638 183.476 187.937 183.473 188.201 183.359C188.465 183.246 188.674 183.032 188.782 182.765L195.585 165.774C195.691 165.506 195.687 165.206 195.575 164.94C195.462 164.675 195.249 164.465 194.983 164.356L166.64 152.886Z" fill="#3C528E"/>
<path d="M187.062 173.752L187.061 173.752L165.181 164.897C164.876 164.773 164.617 164.557 164.438 164.279C164.259 164.001 164.17 163.675 164.182 163.344L164.595 153.041C164.605 152.784 164.677 152.533 164.803 152.31C164.93 152.087 165.108 151.897 165.322 151.758C165.537 151.618 165.782 151.532 166.036 151.507C166.29 151.482 166.547 151.519 166.784 151.615L195.74 163.276C196.132 163.434 196.445 163.741 196.612 164.13C196.779 164.519 196.786 164.959 196.632 165.354L196.727 165.449L195.819 166.359L195.819 166.358L188.784 173.4C188.563 173.622 188.282 173.774 187.976 173.837C187.67 173.899 187.352 173.87 187.062 173.752Z" fill="#3C528E"/>
<path d="M170.632 174.502L160.901 170.564C160.662 170.466 160.47 170.278 160.369 170.039C160.268 169.8 160.265 169.53 160.362 169.289C160.458 169.048 160.646 168.855 160.883 168.753C161.121 168.652 161.389 168.649 161.629 168.746L171.36 172.684C171.479 172.732 171.587 172.803 171.678 172.893C171.77 172.983 171.843 173.09 171.893 173.209C171.943 173.327 171.969 173.454 171.971 173.583C171.972 173.712 171.948 173.839 171.9 173.959C171.852 174.078 171.782 174.187 171.692 174.279C171.603 174.371 171.496 174.444 171.378 174.494C171.26 174.545 171.134 174.571 171.006 174.573C170.878 174.574 170.751 174.55 170.632 174.502Z" fill="#3C528E"/>
<path d="M176.657 171.242C177.972 171.242 179.039 170.17 179.039 168.847C179.039 167.524 177.972 166.452 176.657 166.452C175.341 166.452 174.274 167.524 174.274 168.847C174.274 170.17 175.341 171.242 176.657 171.242Z" fill="#7D6DF1"/>
<path d="M198.123 141.532C212.513 141.532 224.178 129.803 224.178 115.335C224.178 100.867 212.513 89.1387 198.123 89.1387C183.734 89.1387 172.068 100.867 172.068 115.335C172.068 129.803 183.734 141.532 198.123 141.532Z" fill="#51F4FE"/>
<path d="M208.012 131.772L179.668 120.301C179.087 120.064 178.623 119.606 178.377 119.027C178.132 118.447 178.124 117.793 178.357 117.208L185.159 100.216C185.395 99.6321 185.85 99.1657 186.427 98.9187C187.003 98.6717 187.654 98.6642 188.236 98.8979L216.58 110.369C217.16 110.606 217.624 111.064 217.87 111.643C218.116 112.223 218.123 112.877 217.891 113.462L211.088 130.454C210.853 131.038 210.397 131.504 209.82 131.751C209.244 131.998 208.594 132.006 208.012 131.772ZM187.758 100.093C187.491 99.9863 187.193 99.9898 186.929 100.103C186.665 100.216 186.456 100.43 186.348 100.698L179.546 117.688C179.439 117.957 179.443 118.256 179.555 118.522C179.668 118.788 179.881 118.998 180.147 119.106L208.489 130.576C208.756 130.684 209.054 130.68 209.318 130.567C209.583 130.454 209.792 130.24 209.9 129.972L216.702 112.981C216.808 112.713 216.805 112.414 216.692 112.148C216.579 111.882 216.367 111.672 216.1 111.564L187.758 100.093Z" fill="#3C528E"/>
<path d="M208.18 120.96L208.178 120.959L186.298 112.104C185.993 111.98 185.734 111.764 185.555 111.486C185.376 111.208 185.287 110.882 185.299 110.551L185.712 100.248C185.722 99.9912 185.794 99.7406 185.92 99.5174C186.047 99.2942 186.225 99.1048 186.44 98.9651C186.654 98.8254 186.899 98.7395 187.153 98.7147C187.408 98.6898 187.664 98.7267 187.901 98.8222L216.857 110.483C217.249 110.641 217.562 110.948 217.729 111.337C217.896 111.727 217.904 112.167 217.749 112.561L217.844 112.657L216.936 113.566L216.936 113.566L209.902 120.608C209.681 120.83 209.399 120.981 209.093 121.044C208.787 121.107 208.469 121.077 208.18 120.96Z" fill="#3C528E"/>
<path d="M191.749 121.709L182.018 117.771C181.779 117.674 181.587 117.485 181.486 117.246C181.385 117.007 181.382 116.737 181.479 116.496C181.575 116.255 181.763 116.063 182.001 115.961C182.238 115.859 182.506 115.856 182.746 115.953L192.477 119.891C192.717 119.988 192.908 120.177 193.01 120.416C193.111 120.655 193.113 120.925 193.017 121.166C192.92 121.407 192.733 121.599 192.495 121.701C192.257 121.803 191.989 121.806 191.749 121.709Z" fill="#3C528E"/>
<path d="M127.714 134.511C127.716 134.009 127.61 133.514 127.401 133.059C127.192 132.603 126.887 132.2 126.507 131.876C126.126 131.552 125.68 131.317 125.199 131.185C124.718 131.054 124.214 131.03 123.723 131.115L117.856 120.457L114.936 126.065L120.954 135.327C121.152 136.147 121.642 136.865 122.331 137.347C123.02 137.828 123.861 138.038 124.695 137.937C125.528 137.837 126.295 137.432 126.852 136.801C127.408 136.169 127.715 135.354 127.714 134.511Z" fill="#EFD0AB"/>
<path d="M123.924 91.458L117.891 91.0325C117.891 91.0325 117.148 90.9307 115.105 94.1891C113.061 97.4475 106.056 113.971 106.056 113.971L118.329 131.881L122.315 127.891L115.188 113.479L122.019 103.834L123.924 91.458Z" fill="#3098E3"/>
<path d="M190.433 110.821C190.028 110.976 189.595 111.04 189.164 111.008C188.732 110.977 188.313 110.85 187.935 110.638C187.557 110.426 187.23 110.133 186.977 109.78C186.724 109.428 186.551 109.023 186.47 108.596L176.063 107.055L179.705 102.957L189.029 105.048C189.752 104.959 190.483 105.14 191.082 105.557C191.682 105.973 192.108 106.596 192.281 107.308C192.454 108.019 192.362 108.77 192.021 109.417C191.68 110.065 191.115 110.564 190.433 110.821Z" fill="#EFD0AB"/>
<path d="M150.43 225.432H154.877L156.993 208.186L150.43 208.187L150.43 225.432Z" fill="#EFD0AB"/>
<path d="M149.296 223.972L150.548 223.972L155.434 221.974L158.054 223.972H158.054C159.534 223.972 160.954 224.563 162 225.616C163.047 226.668 163.635 228.095 163.635 229.583V229.766L149.296 229.766L149.296 223.972Z" fill="#6758CA"/>
<path d="M123.605 225.432H128.052L130.168 208.186L123.604 208.187L123.605 225.432Z" fill="#EFD0AB"/>
<path d="M122.471 223.972L123.722 223.972L128.609 221.974L131.228 223.972C132.709 223.972 134.128 224.563 135.175 225.616C136.222 226.668 136.81 228.095 136.81 229.583V229.766L122.471 229.766L122.471 223.972Z" fill="#6758CA"/>
<path d="M125.32 140.508L122.381 158.321L123.369 215.583H130.603L141.717 155.013L149.712 214.587L156.986 214.271L160.616 154.137L157.354 138.788L125.32 140.508Z" fill="#050505"/>
<path d="M151.9 87.5332L144.158 86.3863L142.511 82.0888L131.603 82.0737L129.152 87.6849L118.006 91.0686L127.241 122.964C127.241 122.964 122.151 134.818 123.403 134.869C124.655 134.919 125.271 136.719 124.398 137.665C123.525 138.61 121.774 138.009 122.649 139.445C123.151 140.222 123.487 141.096 123.636 142.01C123.636 142.01 160.571 149.938 158.525 139.715C158.27 138.445 155.184 120.838 155.184 120.838C155.184 120.838 157.871 117.848 156.723 116.66C155.574 115.472 156.181 102.924 156.181 102.924L151.9 87.5332Z" fill="#3098E3"/>
<path d="M150.634 88.9269L151.901 87.5332L169.117 97.6828L183.685 103.524L183.967 108.634L165.048 106.363L151.658 99.7803L150.634 88.9269Z" fill="#3098E3"/>
<path d="M145.846 69.7641C145.846 70.9674 145.61 72.1589 145.152 73.2706C144.694 74.3823 144.023 75.3925 143.177 76.2433C142.331 77.0942 141.326 77.7691 140.22 78.2296C139.114 78.6901 137.929 78.9271 136.733 78.9271C136.015 78.926 135.3 78.8419 134.601 78.6764C132.937 78.2746 131.418 77.4098 130.22 76.1809C129.021 74.952 128.191 73.4087 127.824 71.7276C127.457 70.0464 127.569 68.2954 128.145 66.6749C128.722 65.0544 129.741 63.6299 131.085 62.5645C132.43 61.499 134.045 60.8356 135.747 60.6502C137.449 60.4647 139.168 60.7648 140.708 61.516C142.249 62.2673 143.547 63.4393 144.456 64.8979C145.364 66.3566 145.846 68.043 145.846 69.7641Z" fill="#EFD0AB"/>
<path d="M139.173 77.1946L132.628 78.4639C132.018 78.6297 131.379 78.6563 130.757 78.5419C129.784 78.2842 129.131 77.3807 128.633 76.501C126.322 72.3806 125.594 67.5512 126.588 62.9274C126.811 61.9067 127.289 60.7374 128.308 60.5295C128.604 60.4691 128.938 60.4929 129.173 60.3013C129.518 60.0192 129.404 59.421 129.065 59.1314C128.697 58.8762 128.263 58.7343 127.816 58.7231C128.105 58.3816 128.462 58.1056 128.865 57.913C129.267 57.7205 129.706 57.6158 130.152 57.606L128.401 56.6278C129.244 56.0394 130.377 56.0932 131.372 56.3474C132.367 56.6016 133.324 57.032 134.346 57.1284C135.629 57.2493 136.896 56.8348 138.174 56.6745C140.083 56.4665 142.01 56.8129 143.728 57.6728C145.447 58.5327 146.884 59.87 147.869 61.5261C148.217 62.0785 148.437 62.7019 148.513 63.3508C148.548 63.6753 148.508 64.0036 148.395 64.3096C148.282 64.6156 148.099 64.8908 147.862 65.1134C147.145 65.7196 146.016 65.6304 145.322 66.2624C144.786 66.7496 144.653 67.5362 144.623 68.2613C144.593 68.9865 144.627 69.7443 144.318 70.4002C144.009 71.0561 143.202 71.5493 142.557 71.2233C142.529 70.325 141.499 69.689 140.624 69.8744C139.749 70.0599 139.103 70.8597 138.852 71.7221C138.6 72.5846 138.675 73.5061 138.784 74.3981C138.894 75.2901 139.037 76.1926 138.914 77.0828" fill="#2F2E41"/>
<path d="M196.757 118.715C198.073 118.715 199.139 117.643 199.139 116.32C199.139 114.997 198.073 113.925 196.757 113.925C195.442 113.925 194.375 114.997 194.375 116.32C194.375 117.643 195.442 118.715 196.757 118.715Z" fill="#7D6DF1"/>
<defs>
<filter id="filter0_d_34_470" x="0.114258" y="134.138" width="343.398" height="204.626" filterUnits="userSpaceOnUse" color-interpolation-filters="sRGB">
<feFlood flood-opacity="0" result="BackgroundImageFix"/>
<feColorMatrix in="SourceAlpha" type="matrix" values="0 0 0 0 0 0 0 0 0 0 0 0 0 0 0 0 0 0 127 0" result="hardAlpha"/>
<feOffset dy="7"/>
<feGaussianBlur stdDeviation="2"/>
<feComposite in2="hardAlpha" operator="out"/>
<feColorMatrix type="matrix" values="0 0 0 0 0.317647 0 0 0 0 0.956863 0 0 0 0 0.996078 0 0 0 1 0"/>
<feBlend mode="normal" in2="BackgroundImageFix" result="effect1_dropShadow_34_470"/>
<feBlend mode="normal" in="SourceGraphic" in2="effect1_dropShadow_34_470" result="shape"/>
</filter>
<filter id="filter1_d_34_470" x="0.114258" y="84.1284" width="343.398" height="217.626" filterUnits="userSpaceOnUse" color-interpolation-filters="sRGB">
<feFlood flood-opacity="0" result="BackgroundImageFix"/>
<feColorMatrix in="SourceAlpha" type="matrix" values="0 0 0 0 0 0 0 0 0 0 0 0 0 0 0 0 0 0 127 0" result="hardAlpha"/>
<feOffset dy="20"/>
<feGaussianBlur stdDeviation="2"/>
<feColorMatrix type="matrix" values="0 0 0 0 0.317647 0 0 0 0 0.956863 0 0 0 0 0.996078 0 0 0 1 0"/>
<feBlend mode="normal" in2="BackgroundImageFix" result="effect1_dropShadow_34_470"/>
<feBlend mode="normal" in="SourceGraphic" in2="effect1_dropShadow_34_470" result="shape"/>
</filter>
</defs>
</svg>
