<svg width="39" height="38" viewBox="0 0 39 38" fill="none" xmlns="http://www.w3.org/2000/svg">
<path d="M11.8004 0.0102539H27.5413C33.5378 0.0102539 38.41 4.88245 38.41 10.879V26.6199C38.41 29.5025 37.2649 32.267 35.2267 34.3053C33.1884 36.3436 30.4239 37.4886 27.5413 37.4886H11.8004C5.80383 37.4886 0.931641 32.6165 0.931641 26.6199V10.879C0.931641 7.99642 2.07674 5.23192 4.11502 3.19363C6.1533 1.15535 8.91781 0.0102539 11.8004 0.0102539ZM11.4256 3.75809C9.63641 3.75809 7.92051 4.46884 6.65537 5.73398C5.39023 6.99913 4.67948 8.71502 4.67948 10.5042V26.9947C4.67948 30.7238 7.69649 33.7408 11.4256 33.7408H27.9161C29.7053 33.7408 31.4212 33.0301 32.6863 31.7649C33.9514 30.4998 34.6622 28.7839 34.6622 26.9947V10.5042C34.6622 6.7751 31.6452 3.75809 27.9161 3.75809H11.4256ZM29.5089 6.56897C30.1302 6.56897 30.726 6.81576 31.1652 7.25505C31.6045 7.69433 31.8513 8.29013 31.8513 8.91137C31.8513 9.53262 31.6045 10.1284 31.1652 10.5677C30.726 11.007 30.1302 11.2538 29.5089 11.2538C28.8877 11.2538 28.2919 11.007 27.8526 10.5677C27.4133 10.1284 27.1665 9.53262 27.1665 8.91137C27.1665 8.29013 27.4133 7.69433 27.8526 7.25505C28.2919 6.81576 28.8877 6.56897 29.5089 6.56897ZM19.6708 9.37985C22.1558 9.37985 24.539 10.367 26.2961 12.1241C28.0533 13.8813 29.0404 16.2645 29.0404 18.7495C29.0404 21.2344 28.0533 23.6176 26.2961 25.3748C24.539 27.1319 22.1558 28.119 19.6708 28.119C17.1859 28.119 14.8027 27.1319 13.0455 25.3748C11.2884 23.6176 10.3012 21.2344 10.3012 18.7495C10.3012 16.2645 11.2884 13.8813 13.0455 12.1241C14.8027 10.367 17.1859 9.37985 19.6708 9.37985ZM19.6708 13.1277C18.1799 13.1277 16.7499 13.72 15.6957 14.7743C14.6414 15.8286 14.0491 17.2585 14.0491 18.7495C14.0491 20.2404 14.6414 21.6704 15.6957 22.7246C16.7499 23.7789 18.1799 24.3712 19.6708 24.3712C21.1618 24.3712 22.5917 23.7789 23.646 22.7246C24.7003 21.6704 25.2926 20.2404 25.2926 18.7495C25.2926 17.2585 24.7003 15.8286 23.646 14.7743C22.5917 13.72 21.1618 13.1277 19.6708 13.1277Z" fill="#51F4FE"/>
</svg>
