<svg width="35" height="35" viewBox="0 0 35 35" fill="none" xmlns="http://www.w3.org/2000/svg">
<path d="M30.7249 0.279785C31.7189 0.279785 32.6722 0.674645 33.375 1.3775C34.0779 2.08036 34.4727 3.03364 34.4727 4.02762V30.2625C34.4727 31.2565 34.0779 32.2098 33.375 32.9126C32.6722 33.6155 31.7189 34.0103 30.7249 34.0103H4.49003C3.49604 34.0103 2.54276 33.6155 1.8399 32.9126C1.13705 32.2098 0.742188 31.2565 0.742188 30.2625V4.02762C0.742188 3.03364 1.13705 2.08036 1.8399 1.3775C2.54276 0.674645 3.49604 0.279785 4.49003 0.279785H30.7249ZM29.7879 29.3255V19.3938C29.7879 17.7736 29.1443 16.2197 27.9987 15.0741C26.853 13.9284 25.2992 13.2848 23.679 13.2848C22.0861 13.2848 20.231 14.2592 19.3315 15.7209V13.6408H14.1032V29.3255H19.3315V20.0871C19.3315 18.6442 20.4933 17.4636 21.9362 17.4636C22.632 17.4636 23.2993 17.74 23.7913 18.232C24.2833 18.724 24.5597 19.3913 24.5597 20.0871V29.3255H29.7879ZM8.013 10.6988C8.84795 10.6988 9.6487 10.3671 10.2391 9.7767C10.8295 9.1863 11.1612 8.38554 11.1612 7.55059C11.1612 5.80785 9.75574 4.38367 8.013 4.38367C7.17308 4.38367 6.36756 4.71733 5.77364 5.31124C5.17973 5.90515 4.84607 6.71067 4.84607 7.55059C4.84607 9.29334 6.27025 10.6988 8.013 10.6988ZM10.6177 29.3255V13.6408H5.42699V29.3255H10.6177Z" fill="#51F4FE"/>
</svg>
