<svg width="17" height="21" viewBox="0 0 17 21" fill="none" xmlns="http://www.w3.org/2000/svg">
<path d="M8.03125 10.2666C8.58125 10.2666 9.05225 10.0706 9.44425 9.6786C9.83558 9.28727 10.0312 8.8166 10.0312 8.2666C10.0312 7.7166 9.83558 7.2456 9.44425 6.8536C9.05225 6.46227 8.58125 6.2666 8.03125 6.2666C7.48125 6.2666 7.01058 6.46227 6.61925 6.8536C6.22725 7.2456 6.03125 7.7166 6.03125 8.2666C6.03125 8.8166 6.22725 9.28727 6.61925 9.6786C7.01058 10.0706 7.48125 10.2666 8.03125 10.2666ZM8.03125 20.2666C5.34792 17.9833 3.34392 15.8623 2.01925 13.9036C0.693917 11.9456 0.03125 10.1333 0.03125 8.4666C0.03125 5.9666 0.835583 3.97493 2.44425 2.4916C4.05225 1.00827 5.91458 0.266602 8.03125 0.266602C10.1479 0.266602 12.0103 1.00827 13.6182 2.4916C15.2269 3.97493 16.0312 5.9666 16.0312 8.4666C16.0312 10.1333 15.3689 11.9456 14.0443 13.9036C12.7189 15.8623 10.7146 17.9833 8.03125 20.2666Z" fill="#ABC0FF"/>
</svg>
