<svg width="22" height="9" viewBox="0 0 22 9" fill="none" xmlns="http://www.w3.org/2000/svg">
<path d="M10.6558 0.0830078C12.5214 0.0830078 14.3592 0.458661 16.1692 1.20997C17.9798 1.96064 19.5886 3.08697 20.9958 4.58896C21.1855 4.77868 21.2804 5.00002 21.2804 5.25299C21.2804 5.50596 21.1855 5.7273 20.9958 5.91702L18.8139 8.05142C18.64 8.22533 18.4386 8.3202 18.2097 8.33601C17.9801 8.35182 17.7705 8.28858 17.5807 8.14628L14.8297 6.05932C14.7032 5.96446 14.6084 5.85378 14.5451 5.7273C14.4819 5.60082 14.4503 5.45852 14.4503 5.30042V2.59685C13.8495 2.40713 13.2329 2.25693 12.6005 2.14626C11.9681 2.03559 11.3198 1.98025 10.6558 1.98025C9.99177 1.98025 9.34354 2.03559 8.71113 2.14626C8.07871 2.25693 7.46211 2.40713 6.86132 2.59685V5.30042C6.86132 5.45852 6.8297 5.60082 6.76646 5.7273C6.70322 5.85378 6.60835 5.96446 6.48187 6.05932L3.73087 8.14628C3.54115 8.28858 3.33182 8.35182 3.10288 8.33601C2.87332 8.3202 2.67158 8.22533 2.49766 8.05142L0.315836 5.91702C0.126112 5.7273 0.03125 5.50596 0.03125 5.25299C0.03125 5.00002 0.126112 4.77868 0.315836 4.58896C1.70715 3.08697 3.3119 1.96064 5.13009 1.20997C6.94828 0.458661 8.79018 0.0830078 10.6558 0.0830078Z" fill="#ABC0FF"/>
</svg>
