<svg width="41" height="32" viewBox="0 0 41 32" fill="none" xmlns="http://www.w3.org/2000/svg">
<path d="M40.0208 3.79862C38.5778 4.45449 37.0225 4.88549 35.4109 5.09163C37.06 4.09845 38.3342 2.52436 38.9339 0.631696C37.3785 1.56866 35.6545 2.22453 33.8368 2.59931C32.3564 0.987741 30.2764 0.0507812 27.9152 0.0507812C23.5115 0.0507812 19.9136 3.64871 19.9136 8.0899C19.9136 8.72703 19.9886 9.34542 20.1197 9.92634C13.4486 9.58903 7.50825 6.38463 3.55428 1.53118C2.86093 2.71175 2.46741 4.09845 2.46741 5.5601C2.46741 8.35225 3.87285 10.8258 6.0466 12.2313C4.71611 12.2313 3.47933 11.8565 2.39245 11.2943V11.3505C2.39245 15.2483 5.16585 18.5089 8.83874 19.2397C7.65953 19.5624 6.42156 19.6073 5.22207 19.3709C5.73104 20.9684 6.72783 22.3662 8.07233 23.3678C9.41683 24.3695 11.0414 24.9246 12.7177 24.9552C9.87619 27.2047 6.35391 28.4206 2.72976 28.4032C2.09262 28.4032 1.45549 28.3657 0.818359 28.2907C4.37881 30.5769 8.61387 31.9074 13.1488 31.9074C27.9152 31.9074 36.0293 19.652 36.0293 9.02686C36.0293 8.67081 36.0293 8.33351 36.0106 7.97746C37.5847 6.85311 38.9339 5.42893 40.0208 3.79862Z" fill="#51F4FE"/>
</svg>
