<svg width="38" height="27" viewBox="0 0 38 27" fill="none" xmlns="http://www.w3.org/2000/svg">
<path d="M15.508 19.1249L25.2336 13.5032L15.508 7.88142V19.1249ZM37.1705 4.45215C37.4141 5.33289 37.5827 6.51346 37.6952 8.01259C37.8263 9.51173 37.8826 10.8047 37.8826 11.9291L37.995 13.5032C37.995 17.6071 37.6952 20.6241 37.1705 22.5542C36.702 24.2407 35.6151 25.3276 33.9286 25.7961C33.0478 26.0397 31.4363 26.2084 28.9627 26.3208C26.5266 26.452 24.2966 26.5082 22.2353 26.5082L19.2558 26.6206C11.4041 26.6206 6.51314 26.3208 4.58301 25.7961C2.89648 25.3276 1.80961 24.2407 1.34113 22.5542C1.09752 21.6735 0.928864 20.4929 0.816429 18.9938C0.685254 17.4946 0.629037 16.2016 0.629037 15.0773L0.516602 13.5032C0.516602 9.3993 0.816429 6.38229 1.34113 4.45215C1.80961 2.76562 2.89648 1.67875 4.58301 1.21027C5.46375 0.966657 7.07532 0.798004 9.54889 0.685569C11.985 0.554395 14.215 0.498177 16.2763 0.498177L19.2558 0.385742C27.1075 0.385742 31.9985 0.685569 33.9286 1.21027C35.6151 1.67875 36.702 2.76562 37.1705 4.45215Z" fill="#51F4FE"/>
</svg>
